<svg width="22" height="22" viewBox="0 0 22 22" fill="none" xmlns="http://www.w3.org/2000/svg">
<path d="M10.96 18.8512C8.22 18.8512 5.79784 17.4483 4.384 15.344C4.41688 13.152 8.768 11.9464 10.96 11.9464C13.152 11.9464 17.5031 13.152 17.536 15.344C16.8116 16.423 15.8328 17.3073 14.6861 17.919C13.5393 18.5306 12.2597 18.8507 10.96 18.8512ZM10.96 3.288C11.832 3.288 12.6683 3.63441 13.285 4.25103C13.9016 4.86765 14.248 5.70397 14.248 6.576C14.248 7.44803 13.9016 8.28435 13.285 8.90097C12.6683 9.51759 11.832 9.864 10.96 9.864C10.088 9.864 9.25165 9.51759 8.63503 8.90097C8.01841 8.28435 7.672 7.44803 7.672 6.576C7.672 5.70397 8.01841 4.86765 8.63503 4.25103C9.25165 3.63441 10.088 3.288 10.96 3.288ZM10.96 0C9.52071 0 8.09552 0.283489 6.76579 0.83428C5.43606 1.38507 4.22784 2.19238 3.21011 3.21011C1.15471 5.26551 0 8.05323 0 10.96C0 13.8668 1.15471 16.6545 3.21011 18.7099C4.22784 19.7276 5.43606 20.5349 6.76579 21.0857C8.09552 21.6365 9.52071 21.92 10.96 21.92C13.8668 21.92 16.6545 20.7653 18.7099 18.7099C20.7653 16.6545 21.92 13.8668 21.92 10.96C21.92 4.89912 16.988 0 10.96 0Z" fill="#04497B"/>
</svg>
