<svg width="12" height="12" viewBox="0 0 12 12" fill="none" xmlns="http://www.w3.org/2000/svg">
<path d="M6 12C9.31371 12 12 9.31371 12 6C12 2.68629 9.31371 0 6 0C2.68629 0 0 2.68629 0 6C0 9.31371 2.68629 12 6 12Z" fill="white"/>
<path d="M5.50198 7.64999L4.19998 5.72999C4.13933 5.63805 4.10516 5.53118 4.10122 5.42111C4.09727 5.31103 4.1237 5.202 4.17761 5.10595C4.23153 5.0099 4.31084 4.93054 4.40686 4.87657C4.50288 4.82261 4.6119 4.79611 4.72198 4.79999H7.27798C7.38805 4.79611 7.49708 4.82261 7.5931 4.87657C7.68912 4.93054 7.76843 5.0099 7.82234 5.10595C7.87625 5.202 7.90268 5.31103 7.89874 5.42111C7.89479 5.53118 7.86063 5.63805 7.79998 5.72999L6.52198 7.64999C6.46817 7.73682 6.39308 7.80847 6.30383 7.85816C6.21458 7.90785 6.11413 7.93392 6.01198 7.93392C5.90983 7.93392 5.80937 7.90785 5.72012 7.85816C5.63087 7.80847 5.55579 7.73682 5.50198 7.64999Z" fill="#1A8FE3"/>
</svg>
