<svg width="22" height="22" viewBox="0 0 22 22" fill="none" xmlns="http://www.w3.org/2000/svg">
<path d="M21.5925 1.62964H19.9629C19.7376 1.62964 19.5555 1.81174 19.5555 2.03707V19.5555H2.03701C1.81172 19.5555 1.62958 19.7376 1.62958 19.963V21.5926C1.62958 21.8179 1.81168 22 2.03701 22H21.5925C21.8178 22 21.9999 21.8179 21.9999 21.5926V2.03702C21.9999 1.81174 21.8178 1.62964 21.5925 1.62964Z" fill="#04497B"/>
<path d="M18.7407 18.7407V2.03701C18.7407 1.36318 19.289 0.814813 19.9629 0.814813H20.3703V0.407428C20.3703 0.182144 20.1882 0 19.9629 0H8.55552V2.85182C8.55552 3.30119 8.92096 3.66664 9.37033 3.66664C9.8197 3.66664 10.1851 3.30119 10.1851 2.85182C10.1851 2.62654 10.3672 2.44444 10.5925 2.44444C10.8178 2.44444 11 2.62654 11 2.85182C11 3.75056 10.2691 4.48145 9.37033 4.48145C8.4716 4.48145 7.7407 3.75056 7.7407 2.85182V0H0.407428C0.182101 0 0 0.182101 0 0.407428V19.9629C0 20.1882 0.182101 20.3703 0.407428 20.3703H0.814813V19.9629C0.814813 19.2891 1.36318 18.7407 2.03701 18.7407L18.7407 18.7407ZM8.96294 14.6666H7.33332C7.10803 14.6666 6.92589 14.4845 6.92589 14.2592C6.92589 14.0339 7.10799 13.8518 7.33332 13.8518H8.96294C9.18823 13.8518 9.37037 14.0339 9.37037 14.2592C9.37037 14.4845 9.18823 14.6666 8.96294 14.6666ZM10.1851 9.77776H7.33332C7.10803 9.77776 6.92589 9.59566 6.92589 9.37037C6.92589 9.14509 7.10799 8.96294 7.33332 8.96294H10.1851C10.4104 8.96294 10.5925 9.14505 10.5925 9.37037C10.5925 9.59561 10.4104 9.77776 10.1851 9.77776ZM13.037 11.4074C13.2623 11.4074 13.4444 11.5895 13.4444 11.8148C13.4444 12.0401 13.2623 12.2222 13.037 12.2222H8.9629C8.73762 12.2222 8.55547 12.0401 8.55547 11.8148C8.55547 11.5895 8.73757 11.4074 8.9629 11.4074H13.037ZM15.8888 14.6666H11.4074C11.1821 14.6666 11 14.4845 11 14.2592C11 14.0339 11.1821 13.8518 11.4074 13.8518H15.8888C16.1141 13.8518 16.2963 14.0339 16.2963 14.2592C16.2963 14.4845 16.1141 14.6666 15.8888 14.6666ZM15.8888 12.2222H14.6666C14.4414 12.2222 14.2593 12.0401 14.2593 11.8147C14.2593 11.5894 14.4414 11.4073 14.6666 11.4073H15.8888C16.1141 11.4073 16.2963 11.5894 16.2963 11.8147C16.2962 12.0401 16.1141 12.2222 15.8888 12.2222ZM15.8888 9.77776H12.6296C12.4043 9.77776 12.2222 9.59566 12.2222 9.37037C12.2222 9.14509 12.4043 8.96294 12.6296 8.96294H15.8888C16.1141 8.96294 16.2963 9.14505 16.2963 9.37037C16.2962 9.59561 16.1141 9.77776 15.8888 9.77776ZM14.2592 6.51851H15.8888C16.1141 6.51851 16.2963 6.70061 16.2963 6.92593C16.2963 7.15122 16.1142 7.33336 15.8888 7.33336H14.2592C14.0339 7.33336 13.8518 7.15126 13.8518 6.92593C13.8518 6.70061 14.0339 6.51851 14.2592 6.51851ZM9.77776 6.51851H12.6296C12.8549 6.51851 13.037 6.70061 13.037 6.92593C13.037 7.15122 12.8549 7.33336 12.6296 7.33336H9.77776C9.55247 7.33336 9.37037 7.15126 9.37037 6.92593C9.37033 6.70061 9.55243 6.51851 9.77776 6.51851ZM4.48145 6.51851H8.14809C8.37337 6.51851 8.55547 6.70061 8.55547 6.92593C8.55547 7.15122 8.37337 7.33336 8.14809 7.33336H4.48145C4.25617 7.33336 4.07402 7.15126 4.07402 6.92593C4.07407 6.70061 4.25617 6.51851 4.48145 6.51851ZM4.48145 8.96294H5.70365C5.92893 8.96294 6.11108 9.14505 6.11108 9.37037C6.11108 9.59566 5.92898 9.77776 5.70365 9.77776H4.48145C4.25617 9.77776 4.07402 9.59566 4.07402 9.37037C4.07407 9.14505 4.25617 8.96294 4.48145 8.96294ZM4.48145 11.4074H6.51846C6.74375 11.4074 6.92585 11.5895 6.92585 11.8148C6.92585 12.0401 6.74375 12.2222 6.51846 12.2222H4.48145C4.25617 12.2222 4.07402 12.0401 4.07402 11.8148C4.07407 11.5895 4.25617 11.4074 4.48145 11.4074ZM4.48145 13.8518H5.70365C5.92893 13.8518 6.11108 14.0339 6.11108 14.2592C6.11108 14.4845 5.92898 14.6666 5.70365 14.6666H4.48145C4.25617 14.6666 4.07402 14.4845 4.07402 14.2592C4.07402 14.0339 4.25617 13.8518 4.48145 13.8518Z" fill="#04497B"/>
</svg>
