<svg width="25" height="27" viewBox="0 0 25 27" fill="none" xmlns="http://www.w3.org/2000/svg">
<path d="M8.95874 9.92212C9.19482 10.0029 9.44739 10.0484 9.71085 10.0484C11.0013 10.0484 12.0485 8.99492 12.0485 7.69534C12.0485 7.42639 12.0024 7.1686 11.9195 6.92773C10.3143 6.99641 9.02184 8.30264 8.95874 9.92212Z" fill="#2E2D2D"/>
<path d="M9.58398 0.309541C10.2782 0.848424 11.1438 1.16257 12.0523 1.16257C12.9609 1.16257 13.8265 0.848424 14.5206 0.309541C13.7307 0.10767 12.9038 0 12.0522 0C11.2008 0 10.3739 0.10767 9.58398 0.309541Z" fill="#2E2D2D"/>
<path d="M22.0591 10.0429C22.0591 5.96697 19.6275 2.45071 16.1438 0.87793C15.1084 2.00249 13.6272 2.68626 12.0525 2.68626C10.4777 2.68626 8.9965 2.00249 7.96107 0.87793C4.47744 2.45071 2.0459 5.96697 2.0459 10.0429C2.0459 15.5808 6.53474 20.0863 12.0525 20.0863C17.5702 20.0863 22.0591 15.5808 22.0591 10.0429ZM7.43148 10.0451C7.43148 7.48339 9.50447 5.3992 12.0525 5.3992C14.6006 5.3992 16.6736 7.48339 16.6736 10.0451C16.6736 12.607 14.6005 14.6914 12.0525 14.6914C9.50447 14.6914 7.43148 12.607 7.43148 10.0451Z" fill="#2E2D2D"/>
<path d="M23.7906 24.6593C22.0751 22.9437 20.2869 21.1512 18.66 19.5189C16.7874 20.8373 14.5084 21.6122 12.0522 21.6122C9.59571 21.6122 7.31668 20.8371 5.44406 19.5186C3.75843 21.2101 1.9334 23.0398 0.278964 24.6943C0.00654773 24.9666 -0.0748937 25.3764 0.0725692 25.7324C0.220032 26.0884 0.567332 26.3205 0.952738 26.3205H23.1519C23.1525 26.3204 23.153 26.3204 23.1539 26.3205C23.6799 26.3205 24.1065 25.8939 24.1065 25.3678C24.1065 25.0865 23.9845 24.8337 23.7906 24.6593Z" fill="#2E2D2D"/>
</svg>
