<svg width="29" height="27" viewBox="0 0 29 27" fill="none" xmlns="http://www.w3.org/2000/svg">
<path d="M0 26.0479C0 26.5737 0.426289 27 0.952272 27H27.5182C28.0439 27 28.4705 26.5738 28.4705 26.0479V23.98H0V26.0479Z" fill="#04497B"/>
<path d="M27.5181 5.16119H18.6179C18.655 4.93008 18.6749 4.69349 18.6749 4.45202C18.6749 1.99724 16.684 0 14.237 0C11.7898 0 9.79918 1.99724 9.79918 4.45202C9.79918 4.69359 9.81903 4.93008 9.85613 5.16119H0.952272C0.426289 5.16119 0 5.58758 0 6.11337V22.4566H9.85507C9.91479 19.7129 11.9024 18.3412 14.2369 18.3412C16.5718 18.3412 18.5594 19.7129 18.6194 22.4566H28.4704V6.11337C28.4704 5.58758 28.0439 5.16119 27.5181 5.16119ZM14.237 1.42803C15.8966 1.42803 17.2469 2.78444 17.2469 4.45193C17.2469 6.11941 15.8966 7.47621 14.237 7.47621C12.5775 7.47621 11.2272 6.11951 11.2272 4.45193C11.2272 2.78454 12.5775 1.42803 14.237 1.42803ZM14.237 16.8801C12.6237 16.8801 11.3159 15.5716 11.3159 13.9571C11.3159 12.343 12.6237 11.0344 14.237 11.0344C15.8505 11.0344 17.1584 12.343 17.1584 13.9571C17.1584 15.5715 15.8506 16.8801 14.237 16.8801Z" fill="#04497B"/>
<path d="M14.237 6.60895C15.4217 6.60895 16.3858 5.64182 16.3858 4.45287C16.3858 3.2643 15.4217 2.29736 14.237 2.29736C13.0524 2.29736 12.0884 3.2643 12.0884 4.45287C12.0884 5.64182 13.0524 6.60895 14.237 6.60895ZM14.1421 2.87348C14.2012 3.01094 14.2352 3.16221 14.2352 3.32153C14.2352 3.94711 13.7293 4.45392 13.1067 4.45392C12.9494 4.45392 12.8004 4.42085 12.6643 4.36276C12.7096 3.56281 13.3465 2.92122 14.1421 2.87348Z" fill="#04497B"/>
</svg>
