<svg width="18" height="19" viewBox="0 0 18 19" fill="none" xmlns="http://www.w3.org/2000/svg">
<path d="M6.43555 7.12768C6.60514 7.18574 6.78658 7.2184 6.97584 7.2184C7.90288 7.2184 8.65517 6.46159 8.65517 5.528C8.65517 5.33479 8.622 5.14959 8.56248 4.97656C7.40931 5.0259 6.48087 5.96427 6.43555 7.12768Z" fill="white"/>
<path d="M6.88477 0.22237C7.38349 0.609495 8.00527 0.835175 8.65793 0.835175C9.31065 0.835175 9.93243 0.609495 10.4311 0.22237C9.86361 0.0773487 9.26965 0 8.65787 0C8.04621 0 7.45218 0.0773487 6.88477 0.22237Z" fill="white"/>
<path d="M15.8466 7.21534C15.8466 4.28724 14.0998 1.76121 11.5972 0.631348C10.8534 1.43921 9.78939 1.93042 8.65813 1.93042C7.52686 1.93042 6.46282 1.43921 5.719 0.631348C3.21647 1.76121 1.46973 4.28724 1.46973 7.21534C1.46973 11.1937 4.69437 14.4304 8.65813 14.4304C12.6219 14.4304 15.8466 11.1937 15.8466 7.21534ZM5.33856 7.21687C5.33856 5.37661 6.82773 3.87936 8.65813 3.87936C10.4886 3.87936 11.9778 5.37661 11.9778 7.21687C11.9778 9.05733 10.4886 10.5547 8.65813 10.5547C6.82773 10.5547 5.33856 9.05733 5.33856 7.21687Z" fill="white"/>
<path d="M17.0904 17.7141C15.8581 16.4816 14.5734 15.1939 13.4047 14.0213C12.0595 14.9683 10.4224 15.5251 8.65789 15.5251C6.89326 15.5251 5.25608 14.9682 3.91084 14.021C2.69994 15.2362 1.3889 16.5506 0.200399 17.7391C0.00470369 17.9348 -0.0538013 18.2292 0.0521314 18.4849C0.158064 18.7407 0.407553 18.9074 0.684417 18.9074H16.6316C16.632 18.9073 16.6324 18.9073 16.633 18.9074C17.0109 18.9074 17.3174 18.6009 17.3174 18.223C17.3174 18.0209 17.2297 17.8393 17.0904 17.7141Z" fill="white"/>
</svg>
