<svg width="25" height="21" viewBox="0 0 25 21" fill="none" xmlns="http://www.w3.org/2000/svg">
<path d="M17.1195 13.1612C18.5631 13.1612 19.7374 11.9868 19.7374 10.5434V2.6181C19.7374 1.17457 18.5631 0 17.1195 0H2.61744C1.17415 0 0 1.17457 0 2.6181V10.5434C0 11.9868 1.17415 13.1612 2.61744 13.1612H4.52241V15.9014C4.52241 16.2347 4.7231 16.535 5.03087 16.6625C5.13287 16.7046 5.23986 16.725 5.34586 16.725C5.56017 16.725 5.77091 16.6414 5.92849 16.4838L9.25042 13.1612H17.1195Z" fill="#2E2D2D"/>
<path d="M22.3794 6.85352H21.055V10.5432C21.055 12.7133 19.2895 14.4787 17.1194 14.4787H9.79616L8.25635 16.019C8.44192 17.0977 9.38332 17.9214 10.5142 17.9214H16.8906L19.5646 20.5958C19.7221 20.7534 19.9329 20.8371 20.1472 20.8371C20.2532 20.8371 20.3602 20.8164 20.4622 20.7743C20.77 20.6468 20.9706 20.3466 20.9706 20.0134V17.9213H22.3795C23.643 17.9213 24.6709 16.8931 24.6709 15.6294V9.14508C24.6708 7.88155 23.6429 6.85352 22.3794 6.85352Z" fill="#2E2D2D"/>
</svg>
