<svg width="32" height="27" viewBox="0 0 32 27" fill="none" xmlns="http://www.w3.org/2000/svg">
<path d="M16.1181 6.59717C14.7981 6.59717 13.7241 7.67117 13.7241 8.99217C13.7241 10.3112 14.7971 11.3862 16.1181 11.3862C17.4391 11.3862 18.5141 10.3122 18.5141 8.99217C18.5141 7.67117 17.4381 6.59717 16.1181 6.59717ZM16.0471 6.79317H16.2861V7.06517C16.2471 7.06317 16.2071 7.06017 16.1671 7.06017C16.1271 7.06017 16.0871 7.06317 16.0471 7.06517V6.79317ZM15.2101 7.06617L15.3081 7.25817C15.2711 7.27617 15.2361 7.29317 15.2021 7.31417L15.1031 7.12017L15.2101 7.06617ZM13.9291 8.91117H14.2011C14.1991 8.95117 14.1961 8.99117 14.1961 9.03117C14.1961 9.07017 14.1991 9.10917 14.2011 9.14917H13.9291V8.91117ZM14.1991 10.1582L14.1441 10.0532L14.4071 9.91817C14.4261 9.95417 14.4451 9.98817 14.4661 10.0222L14.1991 10.1582ZM14.4871 8.00417L14.2901 7.86717L14.3581 7.77017L14.5511 7.90317C14.5281 7.93617 14.5081 7.96917 14.4871 8.00417ZM15.0041 11.0042L14.9041 10.9402L15.0761 10.6722C15.1091 10.6942 15.1431 10.7142 15.1791 10.7352L15.0041 11.0042ZM16.2861 11.2702H16.0471V10.9972C16.0871 10.9992 16.1271 11.0032 16.1671 11.0032C16.2071 11.0032 16.2471 10.9992 16.2861 10.9972V11.2702ZM17.1241 11.1142L16.9781 10.8262C17.0131 10.8092 17.0481 10.7932 17.0831 10.7742L17.2291 11.0612L17.1241 11.1142ZM17.3631 9.14817H16.0841L15.1161 10.2092L15.0901 10.1862L16.0821 9.09617V8.99117V8.91317V7.27217H16.2511V8.91317H17.3631V9.14817ZM17.3111 7.42617C17.2781 7.40417 17.2461 7.38217 17.2111 7.36117L17.3291 7.17617L17.4301 7.24117L17.3111 7.42617ZM17.9771 10.4112L17.7251 10.2372C17.7471 10.2052 17.7741 10.1742 17.7951 10.1412L18.0441 10.3112L17.9771 10.4112ZM18.4041 9.14917H18.1321C18.1351 9.10917 18.1391 9.07017 18.1391 9.03117C18.1391 8.99117 18.1351 8.95117 18.1321 8.91117H18.4041V9.14917ZM18.1351 8.02217L18.1901 8.12817L17.9731 8.23817C17.9561 8.20217 17.9401 8.16617 17.9201 8.13217L18.1351 8.02217Z" fill="#2E2D2D"/>
<path d="M21.805 12.816V8.10896L16.071 2.68896L10.364 8.10896V12.816H0V26.281H14.186V20.49H17.954V26.281L31.79 26.324V12.859L21.805 12.816ZM4.515 22.002H2.005V19.55H4.515V22.002ZM4.601 18.521H2.091V16.068H4.601V18.521ZM8.081 22.002H5.57V19.55H8.081V22.002ZM8.167 18.521H5.657V16.068H8.167V18.521ZM11.818 22.002H9.308V19.55H11.819L11.818 22.002ZM11.905 18.521H9.395V16.068H11.906L11.905 18.521ZM16.118 11.875C14.528 11.875 13.235 10.581 13.235 8.99197C13.235 7.40097 14.528 6.10796 16.118 6.10796C17.708 6.10796 19.002 7.40097 19.002 8.99197C19.002 10.581 17.708 11.875 16.118 11.875ZM22.545 22.146H20.035V19.691H22.545V22.146ZM22.631 18.521H20.121V16.068H22.631V18.521ZM26.111 22.146H23.6V19.691H26.112L26.111 22.146ZM26.197 18.521H23.687V16.068H26.197V18.521ZM29.85 22.146H27.338V19.691H29.85V22.146ZM29.936 18.521H27.424V16.068H29.936V18.521Z" fill="#2E2D2D"/>
<path d="M16.1578 1.912L22.7898 8.508L23.7558 7.537L16.1768 0L8.32178 7.501L9.26878 8.492L16.1578 1.912Z" fill="#2E2D2D"/>
</svg>
