<svg width="22" height="22" viewBox="0 0 22 22" fill="none" xmlns="http://www.w3.org/2000/svg">
<path d="M20.0921 0.720459H9.51347C9.24979 0.720459 9.03607 0.933885 9.03607 1.1972V4.91189L9.56553 4.58361C9.70025 4.50003 9.84414 4.44366 9.99082 4.41268V1.67394H19.6146V8.54962H9.99086V7.43716L9.03607 8.02918V9.0264C9.03607 9.28972 9.24979 9.50314 9.51347 9.50314H20.0921C20.3557 9.50314 20.5695 9.28972 20.5695 9.0264V1.1972C20.5695 0.933885 20.3557 0.720459 20.0921 0.720459Z" fill="#04497B"/>
<path d="M13.1513 3.36684C13.0257 3.20777 12.7949 3.18057 12.6356 3.30591L10.9912 4.60069C11.1482 4.70317 11.286 4.84046 11.3914 5.01005C11.4213 5.05805 11.4473 5.10742 11.4703 5.15748L13.0904 3.88187C13.2497 3.75648 13.2769 3.52587 13.1513 3.36684Z" fill="#04497B"/>
<path d="M5.21418 2.74441C5.97307 2.74441 6.58828 2.13006 6.58828 1.37221C6.58828 0.614358 5.97307 0 5.21418 0C4.45529 0 3.84009 0.614358 3.84009 1.37221C3.84009 2.13006 4.45529 2.74441 5.21418 2.74441Z" fill="#04497B"/>
<path d="M10.8283 5.35942C10.6351 5.0488 10.2264 4.95332 9.9153 5.14617L8.57257 5.97868C8.56698 4.8667 8.56995 5.45683 8.56637 4.74071C8.56203 3.88112 7.85822 3.18176 6.99741 3.18176H6.34515C5.78789 4.625 5.96741 4.08926 5.4944 5.3143L5.69332 4.4493C5.70709 4.3845 5.69711 4.31695 5.66514 4.25895L5.39561 3.7694L5.6348 3.33503C5.67047 3.27024 5.62344 3.19083 5.54939 3.19083H4.89231C4.81831 3.19083 4.77119 3.27024 4.8069 3.33503L5.04657 3.77031L4.77653 4.26075C4.7452 4.31768 4.73496 4.38386 4.74761 4.44754L4.91994 5.3143C4.82704 5.07372 4.18485 3.41053 4.09651 3.18176H3.43104C2.57027 3.18176 1.86642 3.88108 1.86208 4.74071L1.83759 9.60478C1.83579 9.97044 2.13109 10.2683 2.49725 10.2702C2.49842 10.2702 2.49949 10.2702 2.50065 10.2702C2.86523 10.2702 3.16173 9.97594 3.16354 9.61144L3.18802 4.74737C3.18802 4.7466 3.18802 4.74583 3.18802 4.74509C3.18906 4.67291 3.24822 4.61507 3.32051 4.61563C3.39279 4.61615 3.45105 4.67484 3.45105 4.74703L3.45135 11.6384C4.0583 11.6126 4.62068 11.8312 5.04257 12.2152V9.5267H5.38606V12.6107C5.628 12.966 5.76961 13.3946 5.76961 13.8557C5.76961 14.2758 5.65206 14.669 5.44823 15.0043C5.65761 15.0053 5.86096 15.033 6.05488 15.0842C6.31632 14.8577 6.63081 14.691 6.97727 14.6057C6.97727 2.60276 6.96286 10.0241 6.96286 4.74793C6.96286 4.67149 7.02477 4.60953 7.10132 4.6094C7.17787 4.60923 7.24004 4.67093 7.24039 4.74737C7.24271 5.21174 7.25002 6.66335 7.25256 7.1687C7.25377 7.40843 7.38466 7.62881 7.59476 7.74479C7.80448 7.86054 8.06097 7.85453 8.26527 7.72786L10.6148 6.27109C10.9258 6.07829 11.0214 5.67004 10.8283 5.35942Z" fill="#04497B"/>
<path d="M18.4533 15.3241C19.2565 15.3241 19.9077 14.6738 19.9077 13.8716C19.9077 13.0694 19.2565 12.4191 18.4533 12.4191C17.65 12.4191 16.9988 13.0694 16.9988 13.8716C16.9988 14.6738 17.65 15.3241 18.4533 15.3241Z" fill="#04497B"/>
<path d="M21.9918 17.4372C21.9872 16.5273 21.2422 15.787 20.331 15.787C19.9379 15.787 17.0358 15.787 16.6831 15.787C16.8395 16.0908 16.9285 16.4345 16.9285 16.799C16.9285 17.1859 16.825 17.5901 16.6058 17.9498C17.4192 17.9826 18.1319 18.4185 18.5484 19.0625H20.2945V17.4542C20.2945 17.375 20.3573 17.3102 20.4365 17.3075C20.5157 17.3047 20.5829 17.3652 20.5882 17.4442V17.4443L20.5964 19.0625H22L21.9918 17.4372Z" fill="#04497B"/>
<path d="M12.483 16.7989C12.483 16.4282 12.575 16.0786 12.7367 15.7711C11.7897 15.7711 10.6777 15.7711 9.49808 15.7711C9.64747 16.0693 9.73202 16.4052 9.73202 16.7606C9.73202 17.1783 9.61455 17.5739 9.41064 17.9092C10.0801 17.9124 10.6977 18.1902 11.1439 18.6512C11.5765 18.2291 12.1662 17.9674 12.815 17.9639C12.5897 17.6007 12.483 17.193 12.483 16.7989Z" fill="#04497B"/>
<path d="M11.3794 12.4031C10.5762 12.4031 9.92493 13.0533 9.92493 13.8556C9.92493 14.656 10.5749 15.3081 11.3794 15.3081C12.1762 15.3081 12.8339 14.6651 12.8339 13.8556C12.8339 13.0542 12.184 12.4031 11.3794 12.4031Z" fill="#04497B"/>
<path d="M5.28658 16.7606C5.28658 16.406 5.37074 16.0708 5.5194 15.7732C5.45671 15.7701 5.72042 15.7711 1.66905 15.7711C0.76254 15.7711 0.0128653 16.5075 0.00826135 17.4213L0 19.0625C0.641416 19.0625 0.770457 19.0625 1.40361 19.0625L1.41183 17.4283C1.41226 17.3474 1.47814 17.2822 1.55911 17.2824C1.64009 17.2826 1.70558 17.3482 1.70558 17.4291V19.0625H3.67312C4.09716 18.3856 4.82626 17.9605 5.61983 17.9279C5.40443 17.5814 5.28658 17.1817 5.28658 16.7606Z" fill="#04497B"/>
<path d="M3.54694 12.4031C2.74369 12.4031 2.09247 13.0534 2.09247 13.8556C2.09247 14.6541 2.73987 15.3081 3.54694 15.3081C4.3445 15.3081 5.00145 14.6629 5.00145 13.8556C5.00145 13.0534 4.35023 12.4031 3.54694 12.4031Z" fill="#04497B"/>
<path d="M18.1655 20.3589C18.1609 19.4489 17.4159 18.7086 16.5047 18.7086C16.4081 18.7086 12.9347 18.7086 12.8255 18.7086C11.9144 18.7086 11.1216 19.4489 11.117 20.3588L11.1051 20.3205C11.1006 19.4142 10.359 18.6703 9.44439 18.6703C8.38832 18.6703 6.87154 18.6703 5.76521 18.6703C4.85405 18.6703 4.06127 19.4106 4.05666 20.3205L4.0484 22H5.45201L5.46023 20.3276C5.46057 20.2579 5.51733 20.2017 5.58708 20.2018C5.65682 20.202 5.71323 20.2586 5.71323 20.3282V22C6.53597 22 8.65991 22 9.4305 22V20.3282C9.4305 20.2536 9.49095 20.1931 9.56565 20.1929C9.6403 20.1927 9.70114 20.2529 9.70153 20.3275L9.70975 22C9.9967 22 12.2156 22 12.5123 22L12.5205 20.3659V20.3658C12.5209 20.2961 12.5777 20.24 12.6474 20.2401C12.7172 20.2403 12.7735 20.2968 12.7735 20.3665V22C13.5963 22 15.7202 22 16.4908 22V20.3665C16.4908 20.2919 16.5513 20.2314 16.626 20.2312C16.7006 20.231 16.7615 20.2912 16.7618 20.3658L16.7701 22H18.1737L18.1655 20.3589Z" fill="#04497B"/>
<path d="M7.55484 18.2244C8.36751 18.2244 9.02631 17.5665 9.02631 16.755C9.02631 15.9434 8.36751 15.2855 7.55484 15.2855C6.74217 15.2855 6.08337 15.9434 6.08337 16.755C6.08337 17.5665 6.74217 18.2244 7.55484 18.2244Z" fill="#04497B"/>
<path d="M14.7033 18.2626C15.516 18.2626 16.1748 17.6047 16.1748 16.7931C16.1748 15.9816 15.516 15.3237 14.7033 15.3237C13.8907 15.3237 13.2319 15.9816 13.2319 16.7931C13.2319 17.6047 13.8907 18.2626 14.7033 18.2626Z" fill="#04497B"/>
</svg>
