<svg width="27" height="27" viewBox="0 0 27 27" fill="none" xmlns="http://www.w3.org/2000/svg">
<path d="M27 13.5C27 6.04416 20.9558 0 13.5 0C6.04416 0 0 6.04416 0 13.5C0 20.9558 6.04416 27 13.5 27C20.9558 27 27 20.9558 27 13.5Z" fill="#04497B"/>
<path d="M17.2127 14.6206L12.8927 17.5501C12.6858 17.6866 12.4453 17.7635 12.1977 17.7723C11.95 17.7812 11.7047 17.7217 11.4885 17.6004C11.2724 17.4791 11.0939 17.3007 10.9725 17.0846C10.851 16.8686 10.7914 16.6233 10.8002 16.3756V10.6246C10.7914 10.3769 10.851 10.1316 10.9725 9.9156C11.0939 9.69955 11.2724 9.5211 11.4885 9.3998C11.7047 9.2785 11.95 9.21902 12.1977 9.2279C12.4453 9.23677 12.6858 9.31365 12.8927 9.45011L17.2127 12.3256C17.408 12.4467 17.5692 12.6156 17.681 12.8164C17.7928 13.0173 17.8515 13.2433 17.8515 13.4731C17.8515 13.7029 17.7928 13.929 17.681 14.1298C17.5692 14.3306 17.408 14.4995 17.2127 14.6206Z" fill="#A3E3FF"/>
</svg>
