<svg width="25" height="18" viewBox="0 0 25 18" fill="none" xmlns="http://www.w3.org/2000/svg">
<path d="M0 2C0 0.89543 0.895431 0 2 0H25V16C25 17.1046 24.1046 18 23 18H0V2Z" fill="#FA191C"/>
<path fill-rule="evenodd" clip-rule="evenodd" d="M7.5643 3.17237C8.17215 3.04226 8.89609 3 9.73328 3H10.9463C11.6985 3 12.4009 3.36205 12.8182 3.96482L13.4274 4.84506C13.5666 5.04597 13.8007 5.16667 14.0514 5.16667H17.8424C19.0403 5.16667 20.0113 6.0775 19.9999 7.25042C19.9863 8.6472 19.9977 10.0445 19.9977 11.4413C19.9977 12.2476 19.9539 12.9449 19.8187 13.5303C19.6818 14.124 19.4412 14.6459 19.0165 15.055C18.5918 15.464 18.0498 15.6957 17.4334 15.8276C16.8256 15.9577 16.1016 16 15.2644 16H9.73328C8.89609 16 8.17215 15.9577 7.5643 15.8276C6.94793 15.6957 6.40595 15.464 5.98121 15.055C5.55648 14.6459 5.31595 14.124 5.17897 13.5303C5.04388 12.9449 5 12.2476 5 11.4413V7.55867C5 6.75236 5.04388 6.05513 5.17897 5.4697C5.31595 4.87607 5.55648 4.35408 5.98121 3.94501C6.40595 3.53595 6.94793 3.30429 7.5643 3.17237ZM15.1235 10.5833C15.1235 10.9822 14.7877 11.3056 14.3736 11.3056H10.6241C10.21 11.3056 9.87426 10.9822 9.87426 10.5833C9.87426 10.1844 10.21 9.86111 10.6241 9.86111H14.3736C14.7877 9.86111 15.1235 10.1844 15.1235 10.5833Z" fill="white"/>
</svg>
