<svg width="20" height="20" viewBox="0 0 20 20" fill="none" xmlns="http://www.w3.org/2000/svg">
<path d="M14.7208 16.9624H5.27911C4.8586 16.9624 4.5177 17.3033 4.5177 17.7238C4.5177 18.1443 4.8586 18.4852 5.27911 18.4852H14.7208C15.1413 18.4852 15.4822 18.1443 15.4822 17.7238C15.4822 17.3033 15.1413 16.9624 14.7208 16.9624Z" fill="#04497B"/>
<path d="M10.8824 5.51025H7.43267C7.01216 5.51025 6.67126 5.85115 6.67126 6.27166V8.65568C6.67126 9.07619 7.01216 9.41709 7.43267 9.41709H10.8824C11.3029 9.41709 11.6438 9.07619 11.6438 8.65568V8.15924L12.5758 8.69732C12.9097 8.8901 13.3288 8.64885 13.3288 8.2626V6.66475C13.3288 6.27916 12.9103 6.03682 12.5758 6.23002L11.6438 6.76811V6.2717C11.6438 5.85115 11.3029 5.51025 10.8824 5.51025Z" fill="#04497B"/>
<path d="M19.4924 11.3821H0.507617C0.227266 11.3821 0 11.6093 0 11.8897V13.2445C0 14.5061 1.0227 15.5288 2.28426 15.5288H17.7157C18.9773 15.5288 20 14.5061 20 13.2445V11.8897C20 11.6093 19.7727 11.3821 19.4924 11.3821Z" fill="#04497B"/>
<path d="M17.7157 1.51465H2.28426C1.0227 1.51465 0 2.53734 0 3.79891V9.35168C0 9.63203 0.227266 9.8593 0.507617 9.8593H1.52285C1.8032 9.8593 2.03047 9.63203 2.03047 9.35168V4.30652C2.03047 3.88602 2.37137 3.54512 2.79188 3.54512H17.2081C17.6286 3.54512 17.9695 3.88602 17.9695 4.30652V9.35172C17.9695 9.63207 18.1968 9.85933 18.4771 9.85933H19.4924C19.7727 9.85933 20 9.63207 20 9.35172V3.79891C20 2.53734 18.9773 1.51465 17.7157 1.51465Z" fill="#04497B"/>
</svg>
