<svg width="23" height="22" viewBox="0 0 23 22" fill="none" xmlns="http://www.w3.org/2000/svg">
<path d="M22.7663 18.7903L18.0902 1.33868C17.9658 0.876109 17.6629 0.481797 17.248 0.242289C16.8332 0.00278055 16.3403 -0.0623575 15.8774 0.0611707L12.3871 0.996397C12.3488 1.00667 12.3122 1.02002 12.275 1.03258C12.1071 0.811157 11.8901 0.631574 11.6412 0.507863C11.3924 0.384151 11.1182 0.319661 10.8403 0.31943H7.22686C6.90941 0.319518 6.59767 0.403879 6.3235 0.563892C6.04933 0.403879 5.73759 0.319518 5.42014 0.31943H1.80671C1.32771 0.319978 0.868485 0.510504 0.529779 0.84921C0.191074 1.18792 0.000547816 1.64714 0 2.12614V20.1933C0.000547816 20.6723 0.191074 21.1315 0.529779 21.4702C0.868485 21.8089 1.32771 21.9995 1.80671 22H5.42014C5.73759 21.9999 6.04933 21.9156 6.3235 21.7555C6.59767 21.9156 6.90941 21.9999 7.22686 22H10.8403C11.3193 21.9995 11.7785 21.8089 12.1172 21.4702C12.4559 21.1315 12.6465 20.6723 12.647 20.1933V8.94681L15.7857 20.6606C15.847 20.8899 15.9529 21.1048 16.0973 21.2931C16.2417 21.4814 16.4218 21.6394 16.6273 21.758C16.8328 21.8767 17.0597 21.9537 17.2949 21.9846C17.5302 22.0155 17.7693 21.9998 17.9984 21.9382L21.4888 21.003C21.9513 20.8785 22.3456 20.5756 22.5851 20.1608C22.8246 19.746 22.8898 19.2531 22.7663 18.7903ZM16.345 1.80624L17.0466 4.42399L13.5561 5.35924L12.8548 2.74158L16.345 1.80624ZM10.8403 2.12614L10.8411 15.6765H7.22686V2.12614H10.8403ZM5.42014 2.12614V4.83622H1.80671V2.12614H5.42014ZM10.8403 20.1933H7.22686V17.4832H10.8412L10.8414 20.1933H10.8403ZM21.0211 19.2578L17.5308 20.1931L16.8294 17.5754L20.3207 16.6398L21.0222 19.2575L21.0211 19.2578Z" fill="#04497B"/>
</svg>
