<svg width="22" height="22" viewBox="0 0 22 22" fill="none" xmlns="http://www.w3.org/2000/svg">
<path fill-rule="evenodd" clip-rule="evenodd" d="M12.7917 20.3191L12.1954 21.3265C11.6639 22.2245 10.3362 22.2245 9.80467 21.3265L9.20835 20.3191C8.74584 19.5376 8.51457 19.147 8.1431 18.9309C7.77163 18.7148 7.30394 18.7068 6.36856 18.6907C4.98766 18.6669 4.12159 18.5823 3.39525 18.2814C2.04759 17.7232 0.976881 16.6525 0.418662 15.3048C-3.27827e-08 14.2941 0 13.0127 0 10.45V9.35004C0 5.74925 -6.55654e-08 3.94885 0.810483 2.62627C1.26399 1.88621 1.88621 1.26399 2.62627 0.810483C3.94885 -6.55654e-08 5.74925 0 9.35004 0H12.65C16.2508 0 18.0512 -6.55654e-08 19.3738 0.810483C20.1139 1.26399 20.7361 1.88621 21.1896 2.62627C22.0001 3.94885 22.0001 5.74925 22.0001 9.35004V10.45C22.0001 13.0127 22.0001 14.2941 21.5814 15.3048C21.0232 16.6525 19.9525 17.7232 18.6048 18.2814C17.8785 18.5823 17.0124 18.6669 15.6315 18.6907C14.6961 18.7068 14.2284 18.7148 13.857 18.9309C13.4855 19.1469 13.2542 19.5376 12.7917 20.3191ZM6.60003 10.725C6.14439 10.725 5.77502 11.0944 5.77502 11.55C5.77502 12.0057 6.14439 12.375 6.60003 12.375H12.65C13.1057 12.375 13.4751 12.0057 13.4751 11.55C13.4751 11.0944 13.1057 10.725 12.65 10.725H6.60003ZM5.77502 7.70003C5.77502 7.2444 6.14439 6.87503 6.60003 6.87503H15.4001C15.8557 6.87503 16.2251 7.2444 16.2251 7.70003C16.2251 8.15566 15.8557 8.52503 15.4001 8.52503H6.60003C6.14439 8.52503 5.77502 8.15566 5.77502 7.70003Z" fill="#04497B"/>
</svg>
