<svg width="13" height="19" viewBox="0 0 13 19" fill="none" xmlns="http://www.w3.org/2000/svg">
<path d="M10.5574 3.43844C10.323 1.50408 8.67243 0 6.67625 0H6.10086C4.10461 0 2.4541 1.50408 2.21973 3.43844H10.5574Z" fill="white"/>
<path d="M2.27539 11.0635C2.65022 12.8318 4.2228 14.163 6.10081 14.163H6.6762C8.55421 14.163 10.1268 12.8319 10.5016 11.0635H2.27539Z" fill="white"/>
<path d="M12.1389 6.44498C11.786 6.44498 11.5 6.73105 11.5 7.08391V7.71399H10.5872V4.46045H2.19044V7.71399H1.27779V7.08391C1.27779 6.73105 0.991724 6.44498 0.638865 6.44498C0.286069 6.44498 0 6.73105 0 7.08391V10.3371C0 13.6957 2.56367 16.4391 5.74998 16.536V17.6321H4.18541C3.83255 17.6321 3.54655 17.9182 3.54655 18.271C3.54655 18.6238 3.83255 18.9099 4.18541 18.9099H8.59233C8.94519 18.9099 9.2312 18.6238 9.2312 18.271C9.2312 17.9182 8.94519 17.6321 8.59233 17.6321H7.02777V16.536C10.2142 16.4391 12.7778 13.6957 12.7778 10.3371V7.08391C12.7777 6.73105 12.4917 6.44498 12.1389 6.44498ZM11.4999 10.337C11.4999 13.0521 9.41546 15.2611 6.85325 15.2611H5.92424C3.3621 15.2611 1.27767 13.0521 1.27767 10.337V8.99172H2.19044V10.041H10.5872V8.99172H11.4999V10.337Z" fill="white"/>
</svg>
