<svg width="18" height="22" viewBox="0 0 18 22" fill="none" xmlns="http://www.w3.org/2000/svg">
<path fill-rule="evenodd" clip-rule="evenodd" d="M11.554 19.0041C12.1704 18.9423 12.5869 19.5966 12.2957 20.1263C12.0905 20.4995 11.8013 20.8253 11.4549 21.0921C11.1016 21.3642 10.6917 21.573 10.252 21.7132C9.81205 21.8536 9.34495 21.9246 8.87615 21.9246C8.40735 21.9246 7.94025 21.8536 7.50035 21.7132C7.06065 21.573 6.65078 21.3642 6.29751 21.0921C5.95105 20.8253 5.66183 20.4995 5.45667 20.1263C5.16549 19.5966 5.58197 18.9423 6.19839 19.0041C6.39064 19.0234 7.89525 19.1705 8.87615 19.1705C9.85705 19.1705 11.3617 19.0234 11.554 19.0041Z" fill="#04497B"/>
<path fill-rule="evenodd" clip-rule="evenodd" d="M12.4943 0.739323C10.1985 -0.280445 7.54515 -0.243597 5.28096 0.839503C3.02899 1.91673 1.6053 4.12635 1.6053 6.54428V7.81791C1.6053 8.95005 1.31182 10.0644 0.751384 11.0602L0.524344 11.4635C-0.873026 13.9463 0.654694 17.0173 3.54239 17.5303C7.06735 18.1566 10.682 18.1566 14.207 17.5303L14.3676 17.5018C17.217 16.9955 18.8045 14.042 17.5855 11.5152L17.3201 10.965C16.8756 10.0438 16.6454 9.04045 16.6454 8.02492V6.76155C16.6454 4.21415 15.1052 1.89902 12.6995 0.830463L12.4943 0.739323ZM6.5 12.75C6.08578 12.75 5.75 13.0858 5.75 13.5C5.75 13.9143 6.08578 14.25 6.5 14.25H11.5C11.9143 14.25 12.25 13.9143 12.25 13.5C12.25 13.0858 11.9143 12.75 11.5 12.75H6.5Z" fill="#04497B"/>
</svg>
