<svg width="27" height="22" viewBox="0 0 27 22" fill="none" xmlns="http://www.w3.org/2000/svg">
<path d="M16.5219 10.7528C16.5219 7.35571 17.1465 4.37887 18.1835 2.25488C12.0879 5.75752 6.74256 5.98121 4.06065 6.14281C2.55265 6.23363 1.16409 7.21503 0.442116 8.75179C-0.146357 10.0045 -0.142881 11.4812 0.425707 12.7428C1.14221 14.333 2.53887 15.3757 4.06059 15.3626C4.31255 15.3604 4.61419 15.3643 4.94968 15.3756C4.40639 17.8206 5.80686 20.4072 8.32565 21.4987C9.09543 21.8323 9.90703 22 10.7116 22C11.3387 22 11.9616 21.8981 12.5566 21.6927C13.9326 21.2182 14.9962 20.2507 15.5515 18.9692C15.6808 18.6712 15.7685 18.359 15.8354 18.0422C16.6065 18.3985 17.3917 18.7996 18.1858 19.2549C17.1475 17.1306 16.5219 14.1523 16.5219 10.7528ZM14.5222 18.5232C14.0935 19.5121 13.2657 20.261 12.1907 20.632C11.098 21.0089 9.88339 20.9508 8.77174 20.4687C6.68747 19.5657 5.54681 17.4168 6.08634 15.4429C8.22811 15.6167 11.3217 16.138 14.7878 17.5813C14.7405 17.9052 14.6527 18.2219 14.5222 18.5232Z" fill="#04497B"/>
<path d="M22.2864 0C20.4309 0 18.8343 2.52745 18.091 6.17162C20.5689 6.23065 22.5676 8.2609 22.5676 10.7528C22.5676 13.2446 20.5688 15.2744 18.0909 15.3334C18.8341 18.9777 20.4308 21.5053 22.2864 21.5053C24.8505 21.5053 26.929 16.6911 26.929 10.7526C26.929 4.81416 24.8505 0 22.2864 0Z" fill="#04497B"/>
</svg>
