<svg width="17" height="22" viewBox="0 0 17 22" fill="none" xmlns="http://www.w3.org/2000/svg">
<path fill-rule="evenodd" clip-rule="evenodd" d="M0.6604 16.609C1.01822 16.4004 1.47744 16.5213 1.6861 16.8791C2.51296 18.2971 3.77706 19.3693 5.33593 20.0651C5.71418 20.2339 5.88396 20.6774 5.71514 21.0557C5.54632 21.4339 5.10284 21.6037 4.72459 21.4349C2.91308 20.6264 1.39327 19.3546 0.39032 17.6347C0.18166 17.2769 0.30258 16.8177 0.6604 16.609Z" fill="white"/>
<path fill-rule="evenodd" clip-rule="evenodd" d="M15.1522 2.67194C14.1383 1.63646 12.6923 1.25452 11.2767 1.6573C10.8783 1.77066 10.4635 1.53959 10.3501 1.14119C10.2368 0.742792 10.4678 0.327922 10.8662 0.214562C12.8044 -0.336926 14.8209 0.189592 16.2239 1.6225C16.5137 1.91846 16.5087 2.39331 16.2128 2.6831C15.9168 2.9729 15.442 2.9679 15.1522 2.67194Z" fill="white"/>
<path fill-rule="evenodd" clip-rule="evenodd" d="M7.43668 2.05834C7.22268 1.69126 6.59888 1.46865 5.96516 1.8308C5.3338 2.19163 5.22276 2.82767 5.43309 3.18835L7.95878 7.51947C8.16738 7.87729 8.04648 8.33651 7.68868 8.54517C7.33088 8.75385 6.87168 8.63291 6.66298 8.27509L3.29543 2.50027C3.08137 2.13319 2.45756 1.91058 1.82389 2.27273C1.19253 2.63356 1.08149 3.2696 1.29183 3.63028L5.08031 10.1269C5.28897 10.4847 5.16805 10.944 4.81023 11.1526C4.45241 11.3613 3.99319 11.2404 3.78453 10.8825L2.10076 7.99517C1.8867 7.62809 1.26289 7.40548 0.629222 7.76763C-0.00213772 8.12846 -0.113178 8.76445 0.0971623 9.12515L3.88564 15.6219C5.49458 18.3809 9.46498 19.2763 12.8319 17.352C16.1966 15.4291 17.3926 11.5877 15.7874 8.83495L13.2618 4.50382C13.0477 4.13674 12.4239 3.91413 11.7902 4.27628C11.1589 4.63711 11.0478 5.27315 11.2582 5.63384L12.9419 8.52125C13.0427 8.69406 13.0703 8.89995 13.0185 9.09315C12.9667 9.28645 12.8399 9.45095 12.6662 9.55025C11.1237 10.4317 10.651 12.1362 11.3263 13.2942C11.535 13.6521 11.4141 14.1113 11.0562 14.3199C10.6984 14.5286 10.2392 14.4077 10.0305 14.0499C9.11778 12.4847 9.48658 10.6 10.6655 9.26805C10.9951 8.89565 11.1079 8.35391 10.8574 7.92433L7.43668 2.05834Z" fill="white"/>
</svg>
