<svg width="21" height="22" viewBox="0 0 21 22" fill="none" xmlns="http://www.w3.org/2000/svg">
<path d="M1.1057 7.73223C0.795166 8.04277 0.795166 8.54258 0.795166 9.54217V15.9036C0.795166 16.9032 0.795166 17.403 1.1057 17.7136C1.41624 18.0241 1.91604 18.0241 2.91565 18.0241C3.91525 18.0241 4.41505 18.0241 4.7256 17.7136C5.03613 17.403 5.03613 16.9032 5.03613 15.9036V9.54217C5.03613 8.54258 5.03613 8.04277 4.7256 7.73223C4.41505 7.42169 3.91525 7.42169 2.91565 7.42169C1.91604 7.42169 1.41624 7.42169 1.1057 7.73223Z" fill="#04497B"/>
<path opacity="0.4" d="M15.9491 0.310534C15.6385 0.621079 15.6385 1.12088 15.6385 2.12048V15.9036C15.6385 16.9032 15.6385 17.403 15.9491 17.7136C16.2596 18.0241 16.7594 18.0241 17.759 18.0241C18.7586 18.0241 19.2584 18.0241 19.569 17.7136C19.8795 17.403 19.8795 16.9032 19.8795 15.9036V2.12048C19.8795 1.12088 19.8795 0.621079 19.569 0.310534C19.2584 6.31953e-08 18.7586 0 17.759 0C16.7594 0 16.2596 6.31953e-08 15.9491 0.310534Z" fill="#04497B"/>
<path opacity="0.7" d="M8.21686 5.30121C8.21686 4.3016 8.21686 3.8018 8.5274 3.49126C8.83795 3.18073 9.33774 3.18073 10.3373 3.18073C11.3369 3.18073 11.8367 3.18073 12.1473 3.49126C12.4578 3.8018 12.4578 4.3016 12.4578 5.30121V15.9036C12.4578 16.9032 12.4578 17.403 12.1473 17.7136C11.8367 18.0241 11.3369 18.0241 10.3373 18.0241C9.33774 18.0241 8.83795 18.0241 8.5274 17.7136C8.21686 17.403 8.21686 16.9032 8.21686 15.9036V5.30121Z" fill="#04497B"/>
<path d="M0.795181 20.4097C0.356018 20.4097 0 20.7657 0 21.2048C0 21.644 0.356018 22 0.795181 22H19.8795C20.3187 22 20.6747 21.644 20.6747 21.2048C20.6747 20.7657 20.3187 20.4097 19.8795 20.4097H0.795181Z" fill="#04497B"/>
</svg>
