<svg width="31" height="27" viewBox="0 0 31 27" fill="none" xmlns="http://www.w3.org/2000/svg">
<path d="M8.08108 9.49098C10.3102 9.49098 12.1152 7.68475 12.1152 5.45307C12.1152 4.06221 12.6048 2.78841 11.5299 2.06592C10.8855 1.62663 8.05591 1.41895 7.22013 1.41895C6.22576 1.41895 4.93308 2.22955 4.22947 2.82743C3.35467 3.56629 4.04444 4.21703 4.04444 5.45182C4.04444 7.68475 5.84815 9.49098 8.08108 9.49098ZM5.26915 5.05784C6.01052 4.92316 6.514 5.16735 6.514 5.16735L7.75256 4.56443C7.75256 4.56443 7.12196 5.47573 7.68837 5.16735C8.94959 4.74443 10.3606 4.92065 11.078 5.06162C11.1032 5.21896 11.1259 5.38007 11.1259 5.54748C11.1259 7.20896 9.80676 8.55199 8.16919 8.55199C6.54044 8.55199 5.22006 7.20896 5.22006 5.54748C5.22006 5.38007 5.24272 5.21896 5.26915 5.05784Z" fill="#2E2D2D"/>
<path d="M27.7747 4.88688C27.7558 4.65654 27.7369 4.42745 27.6866 4.20592C27.5267 2.79115 26.2605 -0.083722 22.6266 0.00186951C19.495 0.0761327 18.8115 2.43368 18.6466 3.86859C18.5359 4.22103 18.4641 4.58983 18.4402 4.97373C14.3671 5.68489 14.8151 9.81846 17.3023 9.88895C17.0657 7.73028 18.0953 6.43382 18.4918 6.01719C18.8581 8.24635 20.7826 9.95944 23.1137 9.95944C25.324 9.95944 27.1693 8.42005 27.669 6.36207C28.0504 7.03422 28.691 8.41124 28.535 9.89021C32.4533 9.85622 30.525 5.37651 27.7747 4.88688ZM23.1137 8.63025C21.2823 8.63025 19.792 7.15505 19.7505 5.3312C20.4189 5.08827 20.9148 3.93027 20.9148 3.93027C20.9148 3.93027 21.3113 4.06621 21.3113 5.374C22.0048 5.61567 23.2094 3.34246 23.2094 3.34246V5.13358C23.9734 5.34253 26.3826 5.06561 26.3826 5.06561L26.472 5.14114C26.4732 5.1789 26.4833 5.21792 26.4833 5.25694C26.4858 7.11729 24.9754 8.63025 23.1137 8.63025Z" fill="#2E2D2D"/>
<path d="M24.0953 10.0806H22.1128H20.4576L15.6104 15.9209L10.9192 10.1536H5.5861L0 16.286L1.17059 17.493L5.16948 14.0807V20.6989H5.97127V25.73H5.46149V26.3203H7.78379V25.73V20.6989H8.65355V25.73V26.3203H10.9708V25.73H10.4623V20.6989H11.4353V14.2053L14.6324 17.488L15.9389 17.1658L16.6627 17.347L20.2839 13.2021L20.4904 14.8447L17.1271 20.6247H21.0064V25.657H20.4967V26.2423H22.8164V25.657H22.8189V20.6247H23.6862V25.657V26.2423H26.0072V25.657H25.4975V20.6247H28.5045L25.5415 14.8447L25.7039 12.8233L28.5347 16.617L30.4102 16.15L25.9216 10.0806H24.0953Z" fill="#2E2D2D"/>
</svg>
