<svg width="20" height="20" viewBox="0 0 20 20" fill="none" xmlns="http://www.w3.org/2000/svg">
<path fill-rule="evenodd" clip-rule="evenodd" d="M7.11787 1.25628C8.31428 -0.41876 10.8038 -0.41876 12.0003 1.25628L12.1908 1.52295C12.4013 1.81775 12.7549 1.9756 13.1149 1.9356L13.9639 1.84126C15.8747 1.62896 17.4892 3.24347 17.2769 5.15421L17.1826 6.00323C17.1426 6.36328 17.3004 6.71682 17.5952 6.92739L17.8619 7.11787C19.5369 8.31428 19.5369 10.8038 17.8619 12.0003L17.5952 12.1908C17.3004 12.4013 17.1426 12.7549 17.1826 13.1149L17.2769 13.9639C17.4892 15.8747 15.8747 17.4892 13.9639 17.2769L13.1149 17.1826C12.7549 17.1426 12.4013 17.3004 12.1908 17.5952L12.0003 17.8619C10.8038 19.5369 8.31438 19.5369 7.11787 17.8619L6.92739 17.5952C6.71682 17.3004 6.36328 17.1426 6.00322 17.1826L5.15421 17.2769C3.24347 17.4892 1.62896 15.8747 1.84126 13.9639L1.9356 13.1149C1.9756 12.7549 1.81775 12.4013 1.52295 12.1908L1.25628 12.0003C-0.41876 10.8038 -0.41876 8.31438 1.25628 7.11787L1.52295 6.92739C1.81775 6.71682 1.9756 6.36328 1.9356 6.00322L1.84126 5.15421C1.62896 3.24347 3.24347 1.62896 5.15421 1.84126L6.00323 1.9356C6.36328 1.9756 6.71682 1.81775 6.92739 1.52295L7.11787 1.25628ZM13.2662 6.85197C13.6567 7.2425 13.6567 7.87568 13.2662 8.26618L9.44728 12.0851C8.95678 12.5757 8.16138 12.5757 7.67088 12.0851L5.85197 10.2662C5.46145 9.87568 5.46145 9.24248 5.85197 8.85198C6.2425 8.46148 6.87566 8.46148 7.26619 8.85198L8.55908 10.1449L11.852 6.85197C12.2425 6.46145 12.8757 6.46145 13.2662 6.85197Z" fill="#595E58"/>
</svg>
