<svg width="67" height="59" viewBox="0 0 67 59" fill="none" xmlns="http://www.w3.org/2000/svg">
<rect width="67" height="59" fill="#F7F4EA"/>
<path d="M36.8564 22.4288C36.126 22.4288 35.532 23.0227 35.532 23.7533C35.5321 24.4834 36.1262 25.0773 36.8564 25.0773C37.5866 25.0773 38.1808 24.4836 38.1808 23.7533C38.1808 23.0229 37.5867 22.4288 36.8564 22.4288Z" fill="black"/>
<path d="M34.0342 30.8931C31.6484 30.8931 29.7148 32.8269 29.7148 35.2121C29.7148 37.5975 31.6484 39.5315 34.0342 39.5315C36.42 39.5315 38.3538 37.5975 38.3538 35.2121C38.3538 32.8269 36.42 30.8931 34.0342 30.8931ZM36.4673 35.7241H34.5901V37.6495C34.5901 37.9585 34.3354 38.2099 34.0264 38.2099C33.7173 38.2099 33.4627 37.9587 33.4627 37.6495V35.7241H31.5932C31.2842 35.7241 31.0326 35.4694 31.0326 35.1604C31.0326 34.8513 31.284 34.5967 31.5932 34.5967H33.4627V32.7752C33.4627 32.4663 33.7173 32.2147 34.0264 32.2147C34.3354 32.2147 34.5901 32.4661 34.5901 32.7752V34.5967H36.4673C36.7764 34.5967 37.028 34.8513 37.028 35.1604C37.028 35.4694 36.7764 35.7241 36.4673 35.7241Z" fill="black"/>
<path d="M45.1153 19H22.9533C22.4352 19 22 19.4614 22 19.9795V34.2725C22 34.7908 22.4352 35.1602 22.9533 35.1602H28.5874C28.5874 32.1536 31.0308 29.7138 34.0342 29.7138C37.0377 29.7138 39.4812 32.1536 39.4812 35.1602H45.1153C45.6333 35.1602 46.0527 34.7906 46.0527 34.2725V19.9795C46.0527 19.4614 45.6333 19 45.1153 19ZM40.6838 25.4742L37.1305 29.0283L31.7219 23.6204C31.6484 23.5469 31.5298 23.5469 31.4564 23.6204L28.0258 27.0508L26.4597 25.4849C26.3864 25.4114 26.2606 25.4114 26.1873 25.4849L23.6911 27.9742V20.6911H44.3614V28.8876L40.9492 25.4742C40.8757 25.4007 40.7573 25.4007 40.6838 25.4742Z" fill="black"/>
</svg>
